<?xml version="1.0" standalone="no"?>
<!DOCTYPE svg PUBLIC "-//W3C//DTD SVG 20010904//EN"
 "http://www.w3.org/TR/2001/REC-SVG-20010904/DTD/svg10.dtd">
<svg version="1.0" xmlns="http://www.w3.org/2000/svg"
 viewBox="0 0 2600.000000 2600.000000"
 preserveAspectRatio="xMidYMid meet">
<metadata>
Created by potrace 1.15, written by Peter Selinger 2001-2017
</metadata>
<g transform="translate(0.000000,2600.000000) scale(0.100000,-0.100000)"
fill="#000000" stroke="none">
<path d="M14960 22951 c-151 -49 -5891 -2357 -5937 -2387 -106 -69 -170 -202
-161 -332 5 -56 27 -121 136 -392 l130 -325 -891 -592 c-564 -375 -906 -609
-931 -635 -89 -98 -121 -252 -76 -371 13 -36 195 -318 477 -743 250 -377 453
-687 450 -690 -2 -3 -46 -11 -98 -19 -539 -81 -1011 -318 -1395 -700 -150
-149 -225 -240 -336 -410 -207 -316 -331 -652 -390 -1060 -19 -134 -19 -5874
0 -6020 81 -610 358 -1146 801 -1549 184 -167 358 -285 586 -397 248 -121 481
-192 770 -236 114 -17 346 -18 5015 -18 4669 0 4901 1 5015 18 289 44 536 119
776 238 254 127 467 279 663 475 388 388 625 861 713 1424 17 109 18 276 18
3045 0 3107 2 2970 -46 3210 -196 982 -970 1754 -1959 1955 -52 11 -140 24
-195 30 -55 6 -118 13 -140 16 l-40 5 -1258 3142 c-920 2296 -1268 3154 -1293
3188 -91 123 -259 177 -404 130z m1025 -3637 c616 -1538 1121 -2802 1123
-2810 3 -12 -408 -14 -2981 -14 -2379 0 -2986 3 -2990 13 -240 593 -1417 3537
-1417 3543 0 8 5113 2062 5135 2063 6 0 514 -1257 1130 -2795z m1907 -3664
c81 -5 190 -18 243 -30 653 -136 1156 -642 1296 -1306 19 -88 22 -141 26 -496
l5 -398 -2535 0 c-1654 0 -2571 -4 -2638 -10 -394 -39 -769 -184 -1085 -420
-126 -95 -330 -298 -420 -420 -430 -581 -545 -1291 -319 -1968 228 -684 791
-1208 1488 -1387 292 -74 56 -69 2930 -72 l2577 -4 0 -347 c0 -365 -9 -470
-50 -632 -99 -388 -351 -743 -685 -965 -234 -157 -473 -244 -747 -274 -137
-15 -9599 -15 -9736 0 -573 63 -1072 418 -1321 939 -83 175 -129 333 -151 530
-8 67 -10 951 -8 2960 l3 2865 23 98 c107 463 338 808 710 1061 231 157 523
256 807 275 176 12 9408 13 9587 1z m1568 -4370 l0 -1300 -2567 3 -2568 3 -97
22 c-523 120 -904 504 -1015 1022 -25 120 -25 391 1 510 101 464 424 826 870
975 199 67 17 63 2824 64 l2552 1 0 -1300z"/>
<path d="M8630 15315 l0 -205 210 0 210 0 0 205 0 205 -210 0 -210 0 0 -205z"/>
<path d="M8630 14515 l0 -205 210 0 210 0 0 205 0 205 -210 0 -210 0 0 -205z"/>
<path d="M8630 13715 l0 -205 210 0 210 0 0 205 0 205 -210 0 -210 0 0 -205z"/>
<path d="M8630 12910 l0 -200 210 0 210 0 0 200 0 200 -210 0 -210 0 0 -200z"/>
<path d="M8630 12110 l0 -200 210 0 210 0 0 200 0 200 -210 0 -210 0 0 -200z"/>
<path d="M8630 11310 l0 -200 210 0 210 0 0 200 0 200 -210 0 -210 0 0 -200z"/>
<path d="M8630 10505 l0 -205 210 0 210 0 0 205 0 205 -210 0 -210 0 0 -205z"/>
<path d="M8630 9705 l0 -205 210 0 210 0 0 205 0 205 -210 0 -210 0 0 -205z"/>
<path d="M8630 8905 l0 -205 210 0 210 0 0 205 0 205 -210 0 -210 0 0 -205z"/>
<path d="M8630 8100 l0 -200 210 0 210 0 0 200 0 200 -210 0 -210 0 0 -200z"/>
<path d="M8630 7300 l0 -200 210 0 210 0 0 200 0 200 -210 0 -210 0 0 -200z"/>
<path d="M14589 11761 c-175 -56 -311 -204 -348 -379 -55 -262 116 -524 381
-587 85 -20 140 -19 234 5 224 58 374 253 374 488 0 83 -32 194 -77 265 -62
98 -177 181 -294 212 -74 20 -201 18 -270 -4z"/>
</g>
</svg>
